<?xml version="1.0" encoding="UTF-8" standalone="no"?>
<!DOCTYPE svg PUBLIC "-//W3C//DTD SVG 1.1//EN"
 "http://www.w3.org/Graphics/SVG/1.1/DTD/svg11.dtd">
<!-- Generated by graphviz version 2.40.1 (20161225.0304)
 -->
<!-- Title: G Pages: 1 -->
<svg width="370pt" height="212pt"
 viewBox="0.00 0.00 369.58 212.00" xmlns="http://www.w3.org/2000/svg" xmlns:xlink="http://www.w3.org/1999/xlink">
<g id="graph0" class="graph" transform="scale(1 1) rotate(0) translate(4 208)">
<title>G</title>
<polygon fill="#ffffff" stroke="transparent" points="-4,4 -4,-208 365.58,-208 365.58,4 -4,4"/>
<!-- A0 -->
<g id="node1" class="node">
<title>A0</title>
<polygon fill="none" stroke="#000000" points="74.7919,-36 19.4581,-36 15.4581,-32 15.4581,0 70.7919,0 74.7919,-4 74.7919,-36"/>
<polyline fill="none" stroke="#000000" points="70.7919,-32 15.4581,-32 "/>
<polyline fill="none" stroke="#000000" points="70.7919,-32 70.7919,0 "/>
<polyline fill="none" stroke="#000000" points="70.7919,-32 74.7919,-36 "/>
<text text-anchor="middle" x="45.125" y="-15" font-family="Helvetica,sans-Serif" font-size="10.00" fill="#000000">Docker</text>
</g>
<!-- A1 -->
<g id="node2" class="node">
<title>A1</title>
<polygon fill="none" stroke="#000000" points="90.3753,-120 3.8747,-120 -.1253,-116 -.1253,-84 86.3753,-84 90.3753,-88 90.3753,-120"/>
<polyline fill="none" stroke="#000000" points="86.3753,-116 -.1253,-116 "/>
<polyline fill="none" stroke="#000000" points="86.3753,-116 86.3753,-84 "/>
<polyline fill="none" stroke="#000000" points="86.3753,-116 90.3753,-120 "/>
<text text-anchor="middle" x="45.125" y="-99" font-family="Helvetica,sans-Serif" font-size="10.00" fill="#000000">Apache Kafka</text>
</g>
<!-- A1&#45;&gt;A0 -->
<g id="edge1" class="edge">
<title>A1&#45;&gt;A0</title>
<path fill="none" stroke="#000000" d="M45.125,-83.7733C45.125,-69.6836 45.125,-50.2718 45.125,-36.1912"/>
<text text-anchor="middle" x="63.742" y="-57" font-family="Helvetica,sans-Serif" font-size="10.00" fill="#000000">Runs on</text>
</g>
<!-- A2 -->
<g id="node3" class="node">
<title>A2</title>
<polygon fill="none" stroke="#000000" points="328.2411,-204 278.0089,-204 274.0089,-200 274.0089,-168 324.2411,-168 328.2411,-172 328.2411,-204"/>
<polyline fill="none" stroke="#000000" points="324.2411,-200 274.0089,-200 "/>
<polyline fill="none" stroke="#000000" points="324.2411,-200 324.2411,-168 "/>
<polyline fill="none" stroke="#000000" points="324.2411,-200 328.2411,-204 "/>
<text text-anchor="middle" x="301.125" y="-183" font-family="Helvetica,sans-Serif" font-size="10.00" fill="#000000">React</text>
</g>
<!-- A3 -->
<g id="node4" class="node">
<title>A3</title>
<polygon fill="none" stroke="#000000" points="350.3105,-120 249.9395,-120 245.9395,-116 245.9395,-84 346.3105,-84 350.3105,-88 350.3105,-120"/>
<polyline fill="none" stroke="#000000" points="346.3105,-116 245.9395,-116 "/>
<polyline fill="none" stroke="#000000" points="346.3105,-116 346.3105,-84 "/>
<polyline fill="none" stroke="#000000" points="346.3105,-116 350.3105,-120 "/>
<text text-anchor="middle" x="298.125" y="-99" font-family="Helvetica,sans-Serif" font-size="10.00" fill="#000000">Frontend Node.js</text>
</g>
<!-- A2&#45;&gt;A3 -->
<g id="edge2" class="edge">
<title>A2&#45;&gt;A3</title>
<path fill="none" stroke="#000000" d="M300.474,-167.7733C299.9708,-153.6836 299.2776,-134.2718 298.7747,-120.1912"/>
<text text-anchor="middle" x="318.742" y="-141" font-family="Helvetica,sans-Serif" font-size="10.00" fill="#000000">Runs on</text>
</g>
<!-- A8 -->
<g id="node9" class="node">
<title>A8</title>
<polygon fill="none" stroke="#000000" points="361.535,-36 238.715,-36 234.715,-32 234.715,0 357.535,0 361.535,-4 361.535,-36"/>
<polyline fill="none" stroke="#000000" points="357.535,-32 234.715,-32 "/>
<polyline fill="none" stroke="#000000" points="357.535,-32 357.535,0 "/>
<polyline fill="none" stroke="#000000" points="357.535,-32 361.535,-36 "/>
<text text-anchor="middle" x="298.125" y="-15" font-family="Helvetica,sans-Serif" font-size="10.00" fill="#000000">Frontend/Visualization</text>
</g>
<!-- A3&#45;&gt;A8 -->
<g id="edge8" class="edge">
<title>A3&#45;&gt;A8</title>
<path fill="none" stroke="#000000" d="M298.125,-83.7733C298.125,-69.6836 298.125,-50.2718 298.125,-36.1912"/>
<text text-anchor="middle" x="317.852" y="-57" font-family="Helvetica,sans-Serif" font-size="10.00" fill="#000000">Presents</text>
</g>
<!-- A4 -->
<g id="node5" class="node">
<title>A4</title>
<polygon fill="none" stroke="#000000" points="236.0281,-204 168.2219,-204 164.2219,-200 164.2219,-168 232.0281,-168 236.0281,-172 236.0281,-204"/>
<polyline fill="none" stroke="#000000" points="232.0281,-200 164.2219,-200 "/>
<polyline fill="none" stroke="#000000" points="232.0281,-200 232.0281,-168 "/>
<polyline fill="none" stroke="#000000" points="232.0281,-200 236.0281,-204 "/>
<text text-anchor="middle" x="200.125" y="-183" font-family="Helvetica,sans-Serif" font-size="10.00" fill="#000000">Socket.IO</text>
</g>
<!-- A4&#45;&gt;A3 -->
<g id="edge3" class="edge">
<title>A4&#45;&gt;A3</title>
<path fill="none" stroke="#000000" d="M221.3895,-167.7733C237.8274,-153.6836 260.4745,-134.2718 276.902,-120.1912"/>
<text text-anchor="middle" x="273.742" y="-141" font-family="Helvetica,sans-Serif" font-size="10.00" fill="#000000">Updates</text>
</g>
<!-- A5 -->
<g id="node6" class="node">
<title>A5</title>
<polygon fill="none" stroke="#000000" points="214.7039,-120 115.5461,-120 111.5461,-116 111.5461,-84 210.7039,-84 214.7039,-88 214.7039,-120"/>
<polyline fill="none" stroke="#000000" points="210.7039,-116 111.5461,-116 "/>
<polyline fill="none" stroke="#000000" points="210.7039,-116 210.7039,-84 "/>
<polyline fill="none" stroke="#000000" points="210.7039,-116 214.7039,-120 "/>
<text text-anchor="middle" x="163.125" y="-99" font-family="Helvetica,sans-Serif" font-size="10.00" fill="#000000">Backend Node.js</text>
</g>
<!-- A4&#45;&gt;A5 -->
<g id="edge4" class="edge">
<title>A4&#45;&gt;A5</title>
<path fill="none" stroke="#000000" d="M190.5046,-167.85C187.6191,-162.1874 184.5237,-155.8833 181.891,-150 177.5785,-140.3628 173.2545,-129.4116 169.8458,-120.4054"/>
<text text-anchor="middle" x="200.742" y="-141" font-family="Helvetica,sans-Serif" font-size="10.00" fill="#000000">Runs on</text>
</g>
<!-- A7 -->
<g id="node8" class="node">
<title>A7</title>
<polygon fill="none" stroke="#000000" points="210.9112,-36 119.3388,-36 115.3388,-32 115.3388,0 206.9112,0 210.9112,-4 210.9112,-36"/>
<polyline fill="none" stroke="#000000" points="206.9112,-32 115.3388,-32 "/>
<polyline fill="none" stroke="#000000" points="206.9112,-32 206.9112,0 "/>
<polyline fill="none" stroke="#000000" points="206.9112,-32 210.9112,-36 "/>
<text text-anchor="middle" x="163.125" y="-21" font-family="Helvetica,sans-Serif" font-size="10.00" fill="#000000">Data Collection</text>
<text text-anchor="middle" x="163.125" y="-9" font-family="Helvetica,sans-Serif" font-size="10.00" fill="#000000">Server</text>
</g>
<!-- A5&#45;&gt;A7 -->
<g id="edge7" class="edge">
<title>A5&#45;&gt;A7</title>
<path fill="none" stroke="#000000" d="M163.125,-83.7733C163.125,-69.6836 163.125,-50.2718 163.125,-36.1912"/>
<text text-anchor="middle" x="178.683" y="-57" font-family="Helvetica,sans-Serif" font-size="10.00" fill="#000000">Serves</text>
</g>
<!-- A6 -->
<g id="node7" class="node">
<title>A6</title>
<polygon fill="none" stroke="#000000" points="121.8604,-204 60.3896,-204 56.3896,-200 56.3896,-168 117.8604,-168 121.8604,-172 121.8604,-204"/>
<polyline fill="none" stroke="#000000" points="117.8604,-200 56.3896,-200 "/>
<polyline fill="none" stroke="#000000" points="117.8604,-200 117.8604,-168 "/>
<polyline fill="none" stroke="#000000" points="117.8604,-200 121.8604,-204 "/>
<text text-anchor="middle" x="89.125" y="-183" font-family="Helvetica,sans-Serif" font-size="10.00" fill="#000000">KafkaJS</text>
</g>
<!-- A6&#45;&gt;A1 -->
<g id="edge6" class="edge">
<title>A6&#45;&gt;A1</title>
<path fill="none" stroke="#000000" d="M60.1655,-167.9761C54.3724,-162.9171 49.0632,-156.8854 45.774,-150 41.3913,-140.8255 41.0385,-129.494 41.8699,-120.1451"/>
<text text-anchor="middle" x="72.8005" y="-141" font-family="Helvetica,sans-Serif" font-size="10.00" fill="#000000">Connects to</text>
</g>
<!-- A6&#45;&gt;A5 -->
<g id="edge5" class="edge">
<title>A6&#45;&gt;A5</title>
<path fill="none" stroke="#000000" d="M105.1819,-167.7733C117.5942,-153.6836 134.6951,-134.2718 147.0994,-120.1912"/>
<text text-anchor="middle" x="149.742" y="-141" font-family="Helvetica,sans-Serif" font-size="10.00" fill="#000000">Runs on</text>
</g>
</g>
</svg>
