<?xml version="1.0" encoding="UTF-8" standalone="no"?>
<!DOCTYPE svg PUBLIC "-//W3C//DTD SVG 1.1//EN"
 "http://www.w3.org/Graphics/SVG/1.1/DTD/svg11.dtd">
<!-- Generated by graphviz version 2.40.1 (20161225.0304)
 -->
<!-- Title: G Pages: 1 -->
<svg width="436pt" height="260pt"
 viewBox="0.00 0.00 436.29 260.00" xmlns="http://www.w3.org/2000/svg" xmlns:xlink="http://www.w3.org/1999/xlink">
<g id="graph0" class="graph" transform="scale(1 1) rotate(0) translate(4 256)">
<title>G</title>
<polygon fill="#ffffff" stroke="transparent" points="-4,4 -4,-256 432.2925,-256 432.2925,4 -4,4"/>
<!-- A0 -->
<g id="node1" class="node">
<title>A0</title>
<polygon fill="none" stroke="#000000" points="59.5134,-180 4.1616,-180 .1616,-176 .1616,-144 55.5134,-144 59.5134,-148 59.5134,-180"/>
<polyline fill="none" stroke="#000000" points="55.5134,-176 .1616,-176 "/>
<polyline fill="none" stroke="#000000" points="55.5134,-176 55.5134,-144 "/>
<polyline fill="none" stroke="#000000" points="55.5134,-176 59.5134,-180 "/>
<text text-anchor="middle" x="29.8375" y="-159" font-family="Helvetica,sans-Serif" font-size="10.00" fill="#000000">Pumba</text>
</g>
<!-- A1 -->
<g id="node2" class="node">
<title>A1</title>
<polygon fill="none" stroke="#000000" points="106.5044,-108 51.1706,-108 47.1706,-104 47.1706,-72 102.5044,-72 106.5044,-76 106.5044,-108"/>
<polyline fill="none" stroke="#000000" points="102.5044,-104 47.1706,-104 "/>
<polyline fill="none" stroke="#000000" points="102.5044,-104 102.5044,-72 "/>
<polyline fill="none" stroke="#000000" points="102.5044,-104 106.5044,-108 "/>
<text text-anchor="middle" x="76.8375" y="-87" font-family="Helvetica,sans-Serif" font-size="10.00" fill="#000000">Docker</text>
</g>
<!-- A0&#45;&gt;A1 -->
<g id="edge1" class="edge">
<title>A0&#45;&gt;A1</title>
<path fill="none" stroke="#000000" d="M41.6976,-143.8314C48.768,-133 57.7192,-119.2876 64.8177,-108.4133"/>
</g>
<!-- A3 -->
<g id="node4" class="node">
<title>A3</title>
<polygon fill="none" stroke="#000000" points="117.6782,-36 39.9968,-36 35.9968,-32 35.9968,0 113.6782,0 117.6782,-4 117.6782,-36"/>
<polyline fill="none" stroke="#000000" points="113.6782,-32 35.9968,-32 "/>
<polyline fill="none" stroke="#000000" points="113.6782,-32 113.6782,0 "/>
<polyline fill="none" stroke="#000000" points="113.6782,-32 117.6782,-36 "/>
<text text-anchor="middle" x="76.8375" y="-21" font-family="Helvetica,sans-Serif" font-size="10.00" fill="#000000">Testing</text>
<text text-anchor="middle" x="76.8375" y="-9" font-family="Helvetica,sans-Serif" font-size="10.00" fill="#000000">Architecture</text>
</g>
<!-- A1&#45;&gt;A3 -->
<g id="edge3" class="edge">
<title>A1&#45;&gt;A3</title>
<path fill="none" stroke="#000000" d="M76.8375,-71.8314C76.8375,-61 76.8375,-47.2876 76.8375,-36.4133"/>
</g>
<!-- A2 -->
<g id="node3" class="node">
<title>A2</title>
<polygon fill="none" stroke="#000000" points="168.0878,-180 81.5872,-180 77.5872,-176 77.5872,-144 164.0878,-144 168.0878,-148 168.0878,-180"/>
<polyline fill="none" stroke="#000000" points="164.0878,-176 77.5872,-176 "/>
<polyline fill="none" stroke="#000000" points="164.0878,-176 164.0878,-144 "/>
<polyline fill="none" stroke="#000000" points="164.0878,-176 168.0878,-180 "/>
<text text-anchor="middle" x="122.8375" y="-159" font-family="Helvetica,sans-Serif" font-size="10.00" fill="#000000">Apache Kafka</text>
</g>
<!-- A2&#45;&gt;A1 -->
<g id="edge2" class="edge">
<title>A2&#45;&gt;A1</title>
<path fill="none" stroke="#000000" d="M111.2298,-143.8314C104.3097,-133 95.549,-119.2876 88.6015,-108.4133"/>
</g>
<!-- A4 -->
<g id="node5" class="node">
<title>A4</title>
<polygon fill="none" stroke="#000000" points="389.9536,-252 339.7214,-252 335.7214,-248 335.7214,-216 385.9536,-216 389.9536,-220 389.9536,-252"/>
<polyline fill="none" stroke="#000000" points="385.9536,-248 335.7214,-248 "/>
<polyline fill="none" stroke="#000000" points="385.9536,-248 385.9536,-216 "/>
<polyline fill="none" stroke="#000000" points="385.9536,-248 389.9536,-252 "/>
<text text-anchor="middle" x="362.8375" y="-231" font-family="Helvetica,sans-Serif" font-size="10.00" fill="#000000">React</text>
</g>
<!-- A5 -->
<g id="node6" class="node">
<title>A5</title>
<polygon fill="none" stroke="#000000" points="415.023,-180 314.652,-180 310.652,-176 310.652,-144 411.023,-144 415.023,-148 415.023,-180"/>
<polyline fill="none" stroke="#000000" points="411.023,-176 310.652,-176 "/>
<polyline fill="none" stroke="#000000" points="411.023,-176 411.023,-144 "/>
<polyline fill="none" stroke="#000000" points="411.023,-176 415.023,-180 "/>
<text text-anchor="middle" x="362.8375" y="-159" font-family="Helvetica,sans-Serif" font-size="10.00" fill="#000000">Frontend Node.js</text>
</g>
<!-- A4&#45;&gt;A5 -->
<g id="edge4" class="edge">
<title>A4&#45;&gt;A5</title>
<path fill="none" stroke="#000000" d="M362.8375,-215.8314C362.8375,-205 362.8375,-191.2876 362.8375,-180.4133"/>
</g>
<!-- A10 -->
<g id="node11" class="node">
<title>A10</title>
<polygon fill="none" stroke="#000000" points="428.2475,-108 305.4275,-108 301.4275,-104 301.4275,-72 424.2475,-72 428.2475,-76 428.2475,-108"/>
<polyline fill="none" stroke="#000000" points="424.2475,-104 301.4275,-104 "/>
<polyline fill="none" stroke="#000000" points="424.2475,-104 424.2475,-72 "/>
<polyline fill="none" stroke="#000000" points="424.2475,-104 428.2475,-108 "/>
<text text-anchor="middle" x="364.8375" y="-87" font-family="Helvetica,sans-Serif" font-size="10.00" fill="#000000">Frontend/Visualization</text>
</g>
<!-- A5&#45;&gt;A10 -->
<g id="edge10" class="edge">
<title>A5&#45;&gt;A10</title>
<path fill="none" stroke="#000000" d="M363.3422,-143.8314C363.6431,-133 364.024,-119.2876 364.326,-108.4133"/>
</g>
<!-- A6 -->
<g id="node7" class="node">
<title>A6</title>
<polygon fill="none" stroke="#000000" points="295.7406,-252 227.9344,-252 223.9344,-248 223.9344,-216 291.7406,-216 295.7406,-220 295.7406,-252"/>
<polyline fill="none" stroke="#000000" points="291.7406,-248 223.9344,-248 "/>
<polyline fill="none" stroke="#000000" points="291.7406,-248 291.7406,-216 "/>
<polyline fill="none" stroke="#000000" points="291.7406,-248 295.7406,-252 "/>
<text text-anchor="middle" x="259.8375" y="-231" font-family="Helvetica,sans-Serif" font-size="10.00" fill="#000000">Socket.IO</text>
</g>
<!-- A6&#45;&gt;A5 -->
<g id="edge5" class="edge">
<title>A6&#45;&gt;A5</title>
<path fill="none" stroke="#000000" d="M285.8287,-215.8314C301.4428,-204.9167 321.242,-191.0764 336.8546,-180.1628"/>
</g>
<!-- A7 -->
<g id="node8" class="node">
<title>A7</title>
<polygon fill="none" stroke="#000000" points="289.4164,-180 190.2586,-180 186.2586,-176 186.2586,-144 285.4164,-144 289.4164,-148 289.4164,-180"/>
<polyline fill="none" stroke="#000000" points="285.4164,-176 186.2586,-176 "/>
<polyline fill="none" stroke="#000000" points="285.4164,-176 285.4164,-144 "/>
<polyline fill="none" stroke="#000000" points="285.4164,-176 289.4164,-180 "/>
<text text-anchor="middle" x="237.8375" y="-159" font-family="Helvetica,sans-Serif" font-size="10.00" fill="#000000">Backend Node.js</text>
</g>
<!-- A6&#45;&gt;A7 -->
<g id="edge6" class="edge">
<title>A6&#45;&gt;A7</title>
<path fill="none" stroke="#000000" d="M254.286,-215.8314C250.9764,-205 246.7865,-191.2876 243.4638,-180.4133"/>
</g>
<!-- A9 -->
<g id="node10" class="node">
<title>A9</title>
<polygon fill="none" stroke="#000000" points="283.5638,-108 192.1112,-108 188.1112,-104 188.1112,-72 279.5638,-72 283.5638,-76 283.5638,-108"/>
<polyline fill="none" stroke="#000000" points="279.5638,-104 188.1112,-104 "/>
<polyline fill="none" stroke="#000000" points="279.5638,-104 279.5638,-72 "/>
<polyline fill="none" stroke="#000000" points="279.5638,-104 283.5638,-108 "/>
<text text-anchor="middle" x="235.8375" y="-93" font-family="Helvetica,sans-Serif" font-size="10.00" fill="#000000">Error Detection</text>
<text text-anchor="middle" x="235.8375" y="-81" font-family="Helvetica,sans-Serif" font-size="10.00" fill="#000000">Server</text>
</g>
<!-- A7&#45;&gt;A9 -->
<g id="edge9" class="edge">
<title>A7&#45;&gt;A9</title>
<path fill="none" stroke="#000000" d="M237.3328,-143.8314C237.0319,-133 236.651,-119.2876 236.349,-108.4133"/>
</g>
<!-- A8 -->
<g id="node9" class="node">
<title>A8</title>
<polygon fill="none" stroke="#000000" points="191.5729,-252 130.1021,-252 126.1021,-248 126.1021,-216 187.5729,-216 191.5729,-220 191.5729,-252"/>
<polyline fill="none" stroke="#000000" points="187.5729,-248 126.1021,-248 "/>
<polyline fill="none" stroke="#000000" points="187.5729,-248 187.5729,-216 "/>
<polyline fill="none" stroke="#000000" points="187.5729,-248 191.5729,-252 "/>
<text text-anchor="middle" x="158.8375" y="-231" font-family="Helvetica,sans-Serif" font-size="10.00" fill="#000000">KafkaJS</text>
</g>
<!-- A8&#45;&gt;A2 -->
<g id="edge8" class="edge">
<title>A8&#45;&gt;A2</title>
<path fill="none" stroke="#000000" d="M149.7532,-215.8314C144.3375,-205 137.4813,-191.2876 132.0441,-180.4133"/>
</g>
<!-- A8&#45;&gt;A7 -->
<g id="edge7" class="edge">
<title>A8&#45;&gt;A7</title>
<path fill="none" stroke="#000000" d="M178.7725,-215.8314C190.7483,-204.9167 205.9342,-191.0764 217.9088,-180.1628"/>
</g>
</g>
</svg>
