<?xml version="1.0" encoding="UTF-8" standalone="no"?>
<!DOCTYPE svg PUBLIC "-//W3C//DTD SVG 1.1//EN"
 "http://www.w3.org/Graphics/SVG/1.1/DTD/svg11.dtd">
<!-- Generated by graphviz version 2.40.1 (20161225.0304)
 -->
<!-- Title: G Pages: 1 -->
<svg width="370pt" height="296pt"
 viewBox="0.00 0.00 369.58 296.00" xmlns="http://www.w3.org/2000/svg" xmlns:xlink="http://www.w3.org/1999/xlink">
<g id="graph0" class="graph" transform="scale(1 1) rotate(0) translate(4 292)">
<title>G</title>
<polygon fill="#ffffff" stroke="transparent" points="-4,4 -4,-292 365.58,-292 365.58,4 -4,4"/>
<!-- A0 -->
<g id="node1" class="node">
<title>A0</title>
<polygon fill="none" stroke="#000000" points="74.7919,-120 19.4581,-120 15.4581,-116 15.4581,-84 70.7919,-84 74.7919,-88 74.7919,-120"/>
<polyline fill="none" stroke="#000000" points="70.7919,-116 15.4581,-116 "/>
<polyline fill="none" stroke="#000000" points="70.7919,-116 70.7919,-84 "/>
<polyline fill="none" stroke="#000000" points="70.7919,-116 74.7919,-120 "/>
<text text-anchor="middle" x="45.125" y="-99" font-family="Helvetica,sans-Serif" font-size="10.00" fill="#000000">Docker</text>
</g>
<!-- A2 -->
<g id="node3" class="node">
<title>A2</title>
<polygon fill="none" stroke="#000000" points="85.9657,-36 8.2843,-36 4.2843,-32 4.2843,0 81.9657,0 85.9657,-4 85.9657,-36"/>
<polyline fill="none" stroke="#000000" points="81.9657,-32 4.2843,-32 "/>
<polyline fill="none" stroke="#000000" points="81.9657,-32 81.9657,0 "/>
<polyline fill="none" stroke="#000000" points="81.9657,-32 85.9657,-36 "/>
<text text-anchor="middle" x="45.125" y="-21" font-family="Helvetica,sans-Serif" font-size="10.00" fill="#000000">Testing</text>
<text text-anchor="middle" x="45.125" y="-9" font-family="Helvetica,sans-Serif" font-size="10.00" fill="#000000">Architecture</text>
</g>
<!-- A0&#45;&gt;A2 -->
<g id="edge2" class="edge">
<title>A0&#45;&gt;A2</title>
<path fill="none" stroke="#000000" d="M45.125,-83.7733C45.125,-69.6836 45.125,-50.2718 45.125,-36.1912"/>
<text text-anchor="middle" x="62.073" y="-57" font-family="Helvetica,sans-Serif" font-size="10.00" fill="#000000">Houses</text>
</g>
<!-- A1 -->
<g id="node2" class="node">
<title>A1</title>
<polygon fill="none" stroke="#000000" points="90.3753,-204 3.8747,-204 -.1253,-200 -.1253,-168 86.3753,-168 90.3753,-172 90.3753,-204"/>
<polyline fill="none" stroke="#000000" points="86.3753,-200 -.1253,-200 "/>
<polyline fill="none" stroke="#000000" points="86.3753,-200 86.3753,-168 "/>
<polyline fill="none" stroke="#000000" points="86.3753,-200 90.3753,-204 "/>
<text text-anchor="middle" x="45.125" y="-183" font-family="Helvetica,sans-Serif" font-size="10.00" fill="#000000">Apache Kafka</text>
</g>
<!-- A1&#45;&gt;A0 -->
<g id="edge1" class="edge">
<title>A1&#45;&gt;A0</title>
<path fill="none" stroke="#000000" d="M45.125,-167.7733C45.125,-153.6836 45.125,-134.2718 45.125,-120.1912"/>
<text text-anchor="middle" x="63.742" y="-141" font-family="Helvetica,sans-Serif" font-size="10.00" fill="#000000">Runs on</text>
</g>
<!-- A3 -->
<g id="node4" class="node">
<title>A3</title>
<polygon fill="none" stroke="#000000" points="328.2411,-288 278.0089,-288 274.0089,-284 274.0089,-252 324.2411,-252 328.2411,-256 328.2411,-288"/>
<polyline fill="none" stroke="#000000" points="324.2411,-284 274.0089,-284 "/>
<polyline fill="none" stroke="#000000" points="324.2411,-284 324.2411,-252 "/>
<polyline fill="none" stroke="#000000" points="324.2411,-284 328.2411,-288 "/>
<text text-anchor="middle" x="301.125" y="-267" font-family="Helvetica,sans-Serif" font-size="10.00" fill="#000000">React</text>
</g>
<!-- A4 -->
<g id="node5" class="node">
<title>A4</title>
<polygon fill="none" stroke="#000000" points="350.3105,-204 249.9395,-204 245.9395,-200 245.9395,-168 346.3105,-168 350.3105,-172 350.3105,-204"/>
<polyline fill="none" stroke="#000000" points="346.3105,-200 245.9395,-200 "/>
<polyline fill="none" stroke="#000000" points="346.3105,-200 346.3105,-168 "/>
<polyline fill="none" stroke="#000000" points="346.3105,-200 350.3105,-204 "/>
<text text-anchor="middle" x="298.125" y="-183" font-family="Helvetica,sans-Serif" font-size="10.00" fill="#000000">Frontend Node.js</text>
</g>
<!-- A3&#45;&gt;A4 -->
<g id="edge3" class="edge">
<title>A3&#45;&gt;A4</title>
<path fill="none" stroke="#000000" d="M300.474,-251.7733C299.9708,-237.6836 299.2776,-218.2718 298.7747,-204.1912"/>
<text text-anchor="middle" x="318.742" y="-225" font-family="Helvetica,sans-Serif" font-size="10.00" fill="#000000">Runs on</text>
</g>
<!-- A9 -->
<g id="node10" class="node">
<title>A9</title>
<polygon fill="none" stroke="#000000" points="361.535,-120 238.715,-120 234.715,-116 234.715,-84 357.535,-84 361.535,-88 361.535,-120"/>
<polyline fill="none" stroke="#000000" points="357.535,-116 234.715,-116 "/>
<polyline fill="none" stroke="#000000" points="357.535,-116 357.535,-84 "/>
<polyline fill="none" stroke="#000000" points="357.535,-116 361.535,-120 "/>
<text text-anchor="middle" x="298.125" y="-99" font-family="Helvetica,sans-Serif" font-size="10.00" fill="#000000">Frontend/Visualization</text>
</g>
<!-- A4&#45;&gt;A9 -->
<g id="edge9" class="edge">
<title>A4&#45;&gt;A9</title>
<path fill="none" stroke="#000000" d="M298.125,-167.7733C298.125,-153.6836 298.125,-134.2718 298.125,-120.1912"/>
<text text-anchor="middle" x="317.852" y="-141" font-family="Helvetica,sans-Serif" font-size="10.00" fill="#000000">Presents</text>
</g>
<!-- A5 -->
<g id="node6" class="node">
<title>A5</title>
<polygon fill="none" stroke="#000000" points="236.0281,-288 168.2219,-288 164.2219,-284 164.2219,-252 232.0281,-252 236.0281,-256 236.0281,-288"/>
<polyline fill="none" stroke="#000000" points="232.0281,-284 164.2219,-284 "/>
<polyline fill="none" stroke="#000000" points="232.0281,-284 232.0281,-252 "/>
<polyline fill="none" stroke="#000000" points="232.0281,-284 236.0281,-288 "/>
<text text-anchor="middle" x="200.125" y="-267" font-family="Helvetica,sans-Serif" font-size="10.00" fill="#000000">Socket.IO</text>
</g>
<!-- A5&#45;&gt;A4 -->
<g id="edge4" class="edge">
<title>A5&#45;&gt;A4</title>
<path fill="none" stroke="#000000" d="M221.3895,-251.7733C237.8274,-237.6836 260.4745,-218.2718 276.902,-204.1912"/>
<text text-anchor="middle" x="273.742" y="-225" font-family="Helvetica,sans-Serif" font-size="10.00" fill="#000000">Updates</text>
</g>
<!-- A6 -->
<g id="node7" class="node">
<title>A6</title>
<polygon fill="none" stroke="#000000" points="214.7039,-204 115.5461,-204 111.5461,-200 111.5461,-168 210.7039,-168 214.7039,-172 214.7039,-204"/>
<polyline fill="none" stroke="#000000" points="210.7039,-200 111.5461,-200 "/>
<polyline fill="none" stroke="#000000" points="210.7039,-200 210.7039,-168 "/>
<polyline fill="none" stroke="#000000" points="210.7039,-200 214.7039,-204 "/>
<text text-anchor="middle" x="163.125" y="-183" font-family="Helvetica,sans-Serif" font-size="10.00" fill="#000000">Backend Node.js</text>
</g>
<!-- A5&#45;&gt;A6 -->
<g id="edge5" class="edge">
<title>A5&#45;&gt;A6</title>
<path fill="none" stroke="#000000" d="M190.5046,-251.85C187.6191,-246.1874 184.5237,-239.8833 181.891,-234 177.5785,-224.3628 173.2545,-213.4116 169.8458,-204.4054"/>
<text text-anchor="middle" x="200.742" y="-225" font-family="Helvetica,sans-Serif" font-size="10.00" fill="#000000">Runs on</text>
</g>
<!-- A8 -->
<g id="node9" class="node">
<title>A8</title>
<polygon fill="none" stroke="#000000" points="210.9112,-120 119.3388,-120 115.3388,-116 115.3388,-84 206.9112,-84 210.9112,-88 210.9112,-120"/>
<polyline fill="none" stroke="#000000" points="206.9112,-116 115.3388,-116 "/>
<polyline fill="none" stroke="#000000" points="206.9112,-116 206.9112,-84 "/>
<polyline fill="none" stroke="#000000" points="206.9112,-116 210.9112,-120 "/>
<text text-anchor="middle" x="163.125" y="-105" font-family="Helvetica,sans-Serif" font-size="10.00" fill="#000000">Data Collection</text>
<text text-anchor="middle" x="163.125" y="-93" font-family="Helvetica,sans-Serif" font-size="10.00" fill="#000000">Server</text>
</g>
<!-- A6&#45;&gt;A8 -->
<g id="edge8" class="edge">
<title>A6&#45;&gt;A8</title>
<path fill="none" stroke="#000000" d="M163.125,-167.7733C163.125,-153.6836 163.125,-134.2718 163.125,-120.1912"/>
<text text-anchor="middle" x="178.683" y="-141" font-family="Helvetica,sans-Serif" font-size="10.00" fill="#000000">Serves</text>
</g>
<!-- A7 -->
<g id="node8" class="node">
<title>A7</title>
<polygon fill="none" stroke="#000000" points="121.8604,-288 60.3896,-288 56.3896,-284 56.3896,-252 117.8604,-252 121.8604,-256 121.8604,-288"/>
<polyline fill="none" stroke="#000000" points="117.8604,-284 56.3896,-284 "/>
<polyline fill="none" stroke="#000000" points="117.8604,-284 117.8604,-252 "/>
<polyline fill="none" stroke="#000000" points="117.8604,-284 121.8604,-288 "/>
<text text-anchor="middle" x="89.125" y="-267" font-family="Helvetica,sans-Serif" font-size="10.00" fill="#000000">KafkaJS</text>
</g>
<!-- A7&#45;&gt;A1 -->
<g id="edge7" class="edge">
<title>A7&#45;&gt;A1</title>
<path fill="none" stroke="#000000" d="M60.1655,-251.9761C54.3724,-246.9171 49.0632,-240.8854 45.774,-234 41.3913,-224.8255 41.0385,-213.494 41.8699,-204.1451"/>
<text text-anchor="middle" x="72.8005" y="-225" font-family="Helvetica,sans-Serif" font-size="10.00" fill="#000000">Connects to</text>
</g>
<!-- A7&#45;&gt;A6 -->
<g id="edge6" class="edge">
<title>A7&#45;&gt;A6</title>
<path fill="none" stroke="#000000" d="M105.1819,-251.7733C117.5942,-237.6836 134.6951,-218.2718 147.0994,-204.1912"/>
<text text-anchor="middle" x="149.742" y="-225" font-family="Helvetica,sans-Serif" font-size="10.00" fill="#000000">Runs on</text>
</g>
</g>
</svg>
